<svg width="33" height="33" viewBox="0 0 33 33" fill="none" xmlns="http://www.w3.org/2000/svg">
<path d="M20.0166 4.26422L28.2604 12.5108C28.7434 12.9938 29.0742 13.608 29.2116 14.2771C29.349 14.9463 29.287 15.6411 29.0334 16.2755L24.9063 26.5955C24.6749 27.1733 24.2932 27.6787 23.8007 28.0592C23.3082 28.4398 22.7229 28.6816 22.1055 28.7597L13.2422 29.8679C13.0154 29.8941 12.7746 29.9273 12.5268 29.9657L11.7519 30.0913L11.3471 30.1646L10.0854 30.409L9.22158 30.5922L7.9215 30.8855L6.25495 31.2834L3.54659 31.9745L2.41927 32.2782C2.13478 32.3565 1.8352 32.362 1.54801 32.2944C1.26081 32.2267 0.99519 32.0881 0.775493 31.8911C0.555797 31.6941 0.389057 31.4452 0.290561 31.167C0.192066 30.8888 0.164968 30.5904 0.21175 30.299L0.271083 30.0442L0.78588 28.1034L1.24658 26.2743L1.64446 24.6076L1.93589 23.3073L2.11912 22.4416L2.36517 21.1815L2.50478 20.3839L2.61646 19.6369L3.76822 10.4217C3.84642 9.80397 4.08849 9.21844 4.46931 8.72587C4.85012 8.23329 5.35579 7.85162 5.93386 7.62045L16.2525 3.49279C16.8867 3.23913 17.5814 3.17719 18.2505 3.31462C18.9196 3.45206 19.5337 3.78109 20.0166 4.26422ZM13.5424 14.0467C13.1015 14.4879 12.7869 15.0392 12.6313 15.6433C12.4757 16.2474 12.4848 16.8821 12.6576 17.4815C12.5305 17.556 12.4132 17.6463 12.3086 17.7502L5.2271 24.8327C5.18069 24.8798 5.14862 24.9391 5.13461 25.0038L4.9793 25.6757L4.66867 26.9725L4.5186 27.5851C4.50378 27.6439 4.50448 27.7056 4.52063 27.7641C4.53677 27.8226 4.56781 27.8759 4.61071 27.9188C4.65362 27.9617 4.70691 27.9928 4.7654 28.0089C4.82389 28.0251 4.88556 28.0257 4.9444 28.0109L6.19562 27.7055L7.52711 27.3948C7.5913 27.38 7.64998 27.3474 7.69638 27.3006L14.7779 20.2181C14.8818 20.1142 14.9721 19.9975 15.0466 19.8708C15.638 20.0408 16.2637 20.0515 16.8605 19.9017C17.4572 19.7519 18.0038 19.447 18.4448 19.0179C18.8858 18.5888 19.2055 18.0507 19.3715 17.4582C19.5376 16.8657 19.5441 16.2398 19.3904 15.644C19.2367 15.0481 18.9282 14.5035 18.4963 14.0653C18.0643 13.6272 17.5242 13.311 16.9307 13.1488C16.3371 12.9866 15.7113 12.9843 15.1166 13.142C14.5219 13.2997 13.9794 13.6118 13.5441 14.0467H13.5424ZM21.671 0.984774C21.9712 0.684015 22.3709 0.503174 22.795 0.476182C23.2191 0.449189 23.6385 0.577901 23.9745 0.838168L24.1385 0.984774L31.5411 8.38839C31.8574 8.70174 32.042 9.12416 32.0571 9.56917C32.0722 10.0142 31.9166 10.4481 31.6223 10.7822C31.328 11.1163 30.9171 11.3252 30.4738 11.3662C30.0305 11.4073 29.5882 11.2773 29.2376 11.0029L29.0736 10.8563L21.671 3.45264C21.3438 3.12535 21.16 2.6815 21.16 2.21871C21.16 1.75592 21.3438 1.31207 21.671 0.984774Z" fill="#A192DD"/>
</svg>
