<svg width="39" height="36" viewBox="0 0 39 36" fill="none" xmlns="http://www.w3.org/2000/svg">
<path d="M19.2345 14.8126C21.0665 14.8126 22.5607 16.3435 22.5607 18.2572C22.5607 20.0798 21.0665 21.629 19.2345 21.629C17.4024 21.629 15.9083 20.0798 15.9083 18.2572C15.9083 16.3435 17.4024 14.8126 19.2345 14.8126ZM10.999 32.8378C12.1196 33.5304 14.5742 32.4733 17.4024 29.7395C16.4775 28.6641 15.5703 27.4977 14.7165 26.2766C13.2832 26.136 11.8582 25.917 10.4476 25.6204C9.54047 29.5208 9.87843 32.1999 10.999 32.8378ZM12.2619 22.3763L11.7461 21.4468C11.5504 21.9753 11.3548 22.5038 11.2302 23.0142C11.7105 23.1235 12.2441 23.2146 12.7955 23.3058L12.2619 22.3763ZM23.8947 20.9911L25.3355 18.2572L23.8947 15.5234C23.3611 14.5574 22.7919 13.7008 22.2761 12.8442C21.3156 12.7895 20.3017 12.7895 19.2345 12.7895C18.1672 12.7895 17.1534 12.7895 16.1929 12.8442C15.677 13.7008 15.1078 14.5574 14.5742 15.5234L13.1335 18.2572L14.5742 20.9911C15.1078 21.9571 15.677 22.8137 16.1929 23.6703C17.1534 23.725 18.1672 23.725 19.2345 23.725C20.3017 23.725 21.3156 23.725 22.2761 23.6703C22.7919 22.8137 23.3611 21.9571 23.8947 20.9911ZM19.2345 8.74341C18.8965 9.14438 18.5408 9.56357 18.185 10.0557H20.2839C19.9282 9.56357 19.5724 9.14438 19.2345 8.74341ZM19.2345 27.7711C19.5724 27.3701 19.9282 26.9509 20.2839 26.4588H18.185C18.5408 26.9509 18.8965 27.3701 19.2345 27.7711ZM27.4521 3.67665C26.3493 2.98408 23.8947 4.04117 21.0665 6.77503C21.9915 7.85035 22.8986 9.0168 23.7524 10.2379C25.2109 10.3837 26.6517 10.6024 28.0213 10.894C28.9285 6.99374 28.5905 4.31455 27.4521 3.67665ZM26.207 14.1382L26.7229 15.0677C26.9185 14.5392 27.1142 14.0106 27.2387 13.5003C26.7584 13.391 26.2248 13.2998 25.6734 13.2087L26.207 14.1382ZM28.7862 1.28908C31.4009 2.82004 31.6855 6.84793 30.5827 11.5502C35.1006 12.9171 38.3557 15.1771 38.3557 18.2572C38.3557 21.3374 35.1006 23.5974 30.5827 24.9643C31.6855 29.6666 31.4009 33.6944 28.7862 35.2254C26.1892 36.7564 22.6496 35.0067 19.2345 31.6714C15.8193 35.0067 12.2797 36.7564 9.66498 35.2254C7.06806 33.6944 6.78346 29.6666 7.88627 24.9643C3.36833 23.5974 0.113281 21.3374 0.113281 18.2572C0.113281 15.1771 3.36833 12.9171 7.88627 11.5502C6.78346 6.84793 7.06806 2.82004 9.66498 1.28908C12.2797 -0.24188 15.8193 1.50779 19.2345 4.8431C22.6496 1.50779 26.1892 -0.24188 28.7862 1.28908ZM28.2703 18.2572C28.8751 19.6242 29.4087 20.9911 29.8534 22.3763C33.5887 21.228 35.6876 19.5877 35.6876 18.2572C35.6876 16.9268 33.5887 15.2864 29.8534 14.1382C29.4087 15.5234 28.8751 16.8903 28.2703 18.2572ZM10.1986 18.2572C9.59383 16.8903 9.06022 15.5234 8.61554 14.1382C4.88024 15.2864 2.78135 16.9268 2.78135 18.2572C2.78135 19.5877 4.88024 21.228 8.61554 22.3763C9.06022 20.9911 9.59383 19.6242 10.1986 18.2572ZM26.207 22.3763L25.6734 23.3058C26.2248 23.2146 26.7584 23.1235 27.2387 23.0142C27.1142 22.5038 26.9185 21.9753 26.7229 21.4468L26.207 22.3763ZM21.0665 29.7395C23.8947 32.4733 26.3493 33.5304 27.4521 32.8378C28.5905 32.1999 28.9285 29.5208 28.0213 25.6204C26.6517 25.9121 25.2109 26.1308 23.7524 26.2766C22.8986 27.4977 21.9915 28.6641 21.0665 29.7395ZM12.2619 14.1382L12.7955 13.2087C12.2441 13.2998 11.7105 13.391 11.2302 13.5003C11.3548 14.0106 11.5504 14.5392 11.7461 15.0677L12.2619 14.1382ZM17.4024 6.77503C14.5742 4.04117 12.1196 2.98408 10.999 3.67665C9.87843 4.31455 9.54047 6.99374 10.4476 10.894C11.8582 10.5975 13.2832 10.3785 14.7165 10.2379C15.5703 9.0168 16.4775 7.85035 17.4024 6.77503Z" fill="#59B2E3"/>
</svg>
