<svg width="26" height="27" viewBox="0 0 26 27" fill="none" xmlns="http://www.w3.org/2000/svg">
<path d="M0.467374 24.2893L8.71204 16.0563C8.12313 15.3212 7.65692 14.4759 7.31339 13.5203C6.96986 12.5647 6.7981 11.5478 6.7981 10.4697C6.7981 7.79887 7.72464 5.53873 9.57773 3.68926C11.4308 1.83978 13.6942 0.914554 16.3678 0.913574C19.0424 0.913574 21.3058 1.8388 23.1579 3.68926C25.01 5.53971 25.9365 7.79985 25.9375 10.4697C25.9375 13.1405 25.011 15.4006 23.1579 17.2501C21.3048 19.0996 19.0414 20.0248 16.3678 20.0258C15.2881 20.0258 14.2698 19.8543 13.3129 19.5112C12.3559 19.1682 11.5093 18.7026 10.7732 18.1146L2.49173 26.3843C2.22182 26.6538 1.89056 26.7886 1.49795 26.7886C1.10535 26.7886 0.761826 26.6416 0.467374 26.3475C0.197459 26.078 0.0624989 25.7349 0.0624989 25.3184C0.062499 24.9019 0.197459 24.5588 0.467374 24.2893ZM9.74262 10.4697C9.74262 12.3074 10.387 13.8697 11.6757 15.1566C12.9644 16.4435 14.5285 17.0864 16.3678 17.0854C18.2081 17.0854 19.7726 16.442 21.0614 15.1551C22.3501 13.8682 22.994 12.3064 22.993 10.4697C22.993 8.63197 22.3486 7.06967 21.0599 5.78278C19.7712 4.49589 18.2071 3.85293 16.3678 3.85391C14.5275 3.85391 12.9629 4.49736 11.6742 5.78425C10.3855 7.07114 9.74164 8.63295 9.74262 10.4697Z" fill="#6EFBA6"/>
</svg>
