<svg width="52" height="52" viewBox="0 0 52 52" fill="none" xmlns="http://www.w3.org/2000/svg">
<path d="M4.87696 25.556C4.87625 29.546 5.99906 33.4556 8.11686 36.8373C10.2347 40.2189 13.2619 42.9359 16.8519 44.6771L6.71514 16.9055C5.49999 19.6274 4.87358 22.5752 4.87696 25.556ZM26.4966 27.4145L20.1204 45.9366C24.4001 47.1965 28.9678 47.0779 33.1763 45.5975C33.1169 45.5044 33.0657 45.4063 33.0233 45.3043L26.4966 27.4145ZM40.4653 24.4826C40.4368 22.405 39.8303 20.3763 38.7138 18.6239C37.5718 17.1876 36.8491 15.4635 36.6258 13.6422C36.6004 12.669 36.9618 11.7254 37.6308 11.0181C38.2998 10.3108 39.2219 9.89761 40.1951 9.86893C40.2894 9.86893 40.3786 9.88168 40.4679 9.88932C38.1997 7.81148 35.5073 6.25108 32.5769 5.31603C29.6464 4.38098 26.5478 4.0936 23.4954 4.47376C20.443 4.85392 17.5095 5.89255 14.8979 7.51782C12.2864 9.1431 10.0589 11.3162 8.36976 13.8869C8.86946 13.9022 9.33856 13.9124 9.73884 13.9124C11.9594 13.9124 15.3987 13.6422 15.3987 13.6422C15.6242 13.6359 15.8435 13.7165 16.0113 13.8673C16.179 14.0181 16.2824 14.2276 16.3001 14.4525C16.3178 14.6774 16.2484 14.9005 16.1062 15.0756C15.9641 15.2508 15.7601 15.3647 15.5364 15.3937C15.5364 15.3937 14.384 15.5263 13.1042 15.5951L20.8419 38.6068L25.4921 24.6611L22.1804 15.5951C21.0356 15.5263 19.9521 15.3911 19.9521 15.3911C19.7328 15.3574 19.5344 15.2422 19.3966 15.0684C19.2587 14.8946 19.1916 14.6752 19.2087 14.454C19.2258 14.2328 19.3258 14.0263 19.4887 13.8757C19.6516 13.7252 19.8654 13.6418 20.0872 13.6422C20.0872 13.6422 23.5953 13.9124 25.6834 13.9124C27.904 13.9124 31.3458 13.6422 31.3458 13.6422C31.4608 13.6333 31.5764 13.6472 31.6861 13.683C31.7957 13.7188 31.8972 13.7759 31.9848 13.8509C32.0724 13.926 32.1444 14.0175 32.1966 14.1204C32.2488 14.2232 32.2802 14.3354 32.2891 14.4504C32.298 14.5654 32.2841 14.681 32.2483 14.7906C32.2125 14.9003 32.1554 15.0018 32.0804 15.0894C32.0053 15.177 31.9137 15.249 31.8109 15.3012C31.708 15.3534 31.5959 15.3848 31.4809 15.3937C31.4809 15.3937 30.3285 15.5263 29.0512 15.5951L36.7278 38.4334L38.9203 31.4861C39.7769 29.2425 40.297 26.8791 40.4653 24.4826ZM44.9091 17.548C44.8722 20.1659 44.3231 22.7513 43.2927 25.1582L36.8042 43.9199C41.5901 41.136 45.1003 36.5939 46.5874 31.2607C48.0745 25.9274 47.4211 20.2243 44.7663 15.3656C44.8632 16.0871 44.9091 16.8188 44.9091 17.548ZM26.1219 0.0610352C12.041 0.0610352 0.626953 11.4751 0.626953 25.556C0.626953 39.6368 12.041 51.0509 26.1219 51.0509C40.2027 51.0509 51.6168 39.6368 51.6168 25.556C51.6168 11.4751 40.2027 0.0610352 26.1219 0.0610352ZM35.4505 47.6396C31.7781 49.1935 27.7757 49.8052 23.8068 49.4192C19.8379 49.0331 16.0284 47.6616 12.7243 45.4292C8.87036 42.828 5.85321 39.1653 4.03817 34.8845C2.48386 31.2123 1.87192 27.2098 2.25795 23.2408C2.64398 19.2719 4.01575 15.4623 6.24858 12.1584C8.84962 8.30489 12.5125 5.28851 16.7933 3.4748C20.4655 1.92059 24.4678 1.30846 28.4366 1.69404C32.4055 2.07962 36.2151 3.45067 39.5194 5.68266C43.3734 8.28388 46.3905 11.9466 48.2056 16.2274C49.7599 19.8996 50.3718 23.9021 49.9858 27.8711C49.5998 31.84 48.228 35.6496 45.9952 38.9535C43.3945 42.808 39.7316 45.8252 35.4505 47.6396Z" fill="#59B2E3"/>
</svg>
